<svg xmlns="http://www.w3.org/2000/svg" xmlns:xlink="http://www.w3.org/1999/xlink" viewBox="0,0,256,256" width="150px" height="150px"><g fill="#ffffff" fill-rule="nonzero" stroke="none" stroke-width="1" stroke-linecap="butt" stroke-linejoin="miter" stroke-miterlimit="10" stroke-dasharray="" stroke-dashoffset="0" font-family="none" font-weight="none" font-size="none" text-anchor="none" style="mix-blend-mode: normal"><g transform="scale(5.12,5.12)"><path d="M8.5,17c-4.68258,0 -8.5,3.81742 -8.5,8.5c0,4.68258 3.81742,8.5 8.5,8.5c2.09576,0 4.01553,-0.76851 5.5,-2.0332c1.48447,1.26469 3.40424,2.0332 5.5,2.0332c2.09576,0 4.01553,-0.76851 5.5,-2.0332c1.48447,1.26469 3.40424,2.0332 5.5,2.0332c2.09576,0 4.01553,-0.76851 5.5,-2.0332c1.48447,1.26469 3.40424,2.0332 5.5,2.0332c4.68258,0 8.5,-3.81742 8.5,-8.5c0,-4.68258 -3.81742,-8.5 -8.5,-8.5c-2.09576,0 -4.01553,0.76851 -5.5,2.0332c-1.48447,-1.26469 -3.40424,-2.0332 -5.5,-2.0332c-2.09576,0 -4.01553,0.76851 -5.5,2.0332c-1.48447,-1.26469 -3.40424,-2.0332 -5.5,-2.0332c-2.09576,0 -4.01553,0.76851 -5.5,2.0332c-1.48447,-1.26469 -3.40424,-2.0332 -5.5,-2.0332zM8.5,19c1.58124,0 3.02603,0.5587 4.15039,1.49023c-1.03246,1.40717 -1.65039,3.1369 -1.65039,5.00977c0,1.87286 0.61793,3.6026 1.65039,5.00977c-1.12436,0.93153 -2.56915,1.49023 -4.15039,1.49023c-3.6017,0 -6.5,-2.8983 -6.5,-6.5c0,-3.6017 2.8983,-6.5 6.5,-6.5zM19.5,19c1.58124,0 3.02603,0.5587 4.15039,1.49023c-1.03246,1.40717 -1.65039,3.1369 -1.65039,5.00977c0,1.87286 0.61793,3.6026 1.65039,5.00977c-1.12436,0.93153 -2.56915,1.49023 -4.15039,1.49023c-1.58124,0 -3.02603,-0.5587 -4.15039,-1.49023c1.03246,-1.40717 1.65039,-3.1369 1.65039,-5.00977c0,-1.87286 -0.61793,-3.6026 -1.65039,-5.00977c1.12436,-0.93153 2.56915,-1.49023 4.15039,-1.49023zM30.5,19c1.58124,0 3.02603,0.5587 4.15039,1.49023c-1.03246,1.40717 -1.65039,3.1369 -1.65039,5.00977c0,1.87286 0.61793,3.6026 1.65039,5.00977c-1.12436,0.93153 -2.56915,1.49023 -4.15039,1.49023c-1.58124,0 -3.02603,-0.5587 -4.15039,-1.49023c1.03246,-1.40717 1.65039,-3.1369 1.65039,-5.00977c0,-1.87286 -0.61793,-3.6026 -1.65039,-5.00977c1.12436,-0.93153 2.56915,-1.49023 4.15039,-1.49023zM41.5,19c3.6017,0 6.5,2.8983 6.5,6.5c0,3.6017 -2.8983,6.5 -6.5,6.5c-1.58124,0 -3.02603,-0.5587 -4.15039,-1.49023c1.03246,-1.40717 1.65039,-3.1369 1.65039,-5.00977c0,-1.87286 -0.61793,-3.6026 -1.65039,-5.00977c1.12436,-0.93153 2.56915,-1.49023 4.15039,-1.49023zM14,22.03711c0.63053,1.00215 1,2.18625 1,3.46289c0,1.27664 -0.36947,2.46074 -1,3.46289c-0.63053,-1.00215 -1,-2.18625 -1,-3.46289c0,-1.27664 0.36947,-2.46074 1,-3.46289zM25,22.03711c0.63053,1.00215 1,2.18625 1,3.46289c0,1.27664 -0.36947,2.46074 -1,3.46289c-0.63053,-1.00215 -1,-2.18625 -1,-3.46289c0,-1.27664 0.36947,-2.46074 1,-3.46289zM36,22.03711c0.63053,1.00215 1,2.18625 1,3.46289c0,1.27664 -0.36947,2.46074 -1,3.46289c-0.63053,-1.00215 -1,-2.18625 -1,-3.46289c0,-1.27664 0.36947,-2.46074 1,-3.46289z"></path></g></g></svg>