<?xml version="1.0" encoding="UTF-8" standalone="no"?>
<svg
   width="789.27332"
   height="789.02814"
   viewBox="0 0 789.2733 789.02813"
   version="1.1"
   id="svg766"
   xmlns="http://www.w3.org/2000/svg"
   xmlns:svg="http://www.w3.org/2000/svg">
  <defs
     id="defs766" />
  <title
     id="title1">GM_new_logo</title>
  <path
     d="m 0,394.75254 q 0,-141.93 0.08,-283.86 c 0.05,-39.55 16.85,-70.6 49.39,-92.89 A 102.11,102.11 0 0 1 108.09,0.00253986 q 287.06,0 574.09,0.07 c 51.69,0 98.24,40.78000014 105.6,92.00000014 a 139.29,139.29 0 0 1 1.46,19.78 q 0.1,283.11 -0.1,566.21 c -0.1,47.27 -22.93,81.18 -65.43,101.62 -13.1,6.3 -27.24,9 -41.77,9.31 -3,0.08 -6,0 -9,0 q -280.86,0 -561.72,0 c -37.17,0 -67.35,-14.92 -89.77,-44.63 -14.7,-19.45 -21.45,-41.7 -21.45,-66.13 q 0.11,-141.73 0,-283.48 z m 394.49,-344.39 q -141.36,0 -282.73,0 c -12.2,0 -23.59,2.58 -33.79,9.32 -18.67,12.32 -27.62,29.81 -27.62,52.15 q 0.06,282.17 0,564.32 c 0,1.63 0,3.25 0.06,4.87 a 56,56 0 0 0 8.41,28.8 c 12.09,19.17 29.67,28.84 52.3,28.85 q 281.22,0.08 562.45,0 c 2.62,0 5.25,0.07 7.87,-0.05 13.67,-0.62 25.93,-5.08 36.35,-14 14.92,-12.79 21.21,-29.25 21.2,-48.77 q -0.16,-279.54 -0.07,-559.07 c 0,-3.63 0.06,-7.26 -0.18,-10.87 a 57.24,57.24 0 0 0 -14.62,-35.33 c -12.35,-13.85 -28,-20.28 -46.56,-20.26 q -141.56,0.12 -283.07,0.04 z"
     fill="#202020"
     id="path1" />
  <path
     d="m 585.56,477.83254 v -4.36 q 0,-97.11 0.05,-194.22 c 0,-8.53 -2,-15.91 -9.28,-20.91 -2.5,-1.72 -5.59,-3.51 -8.47,-3.6 -12.32,-0.4 -24.67,-0.17 -37.51,-0.17 v 223 h -57.41 v -223.15 H 417.5 v 223.2 h -57.1 v -273.29 h 3.92 q 108,0 216,0 c 35.52,0 62.6,27.13 62.63,62.75 q 0.05,103.32 0.05,206.62 c 0,3.29 -0.81,4.24 -4.15,4.2 -16.37,-0.17 -32.75,-0.07 -49.12,-0.07 z"
     fill="#202020"
     id="path2" />
  <path
     d="m 180.2,534.18254 c 7.23,0 14.48,0.37 21.68,-0.1 8.31,-0.55 16.8,-1 24.82,-3 20.93,-5.3 31.14,-18.51 32.11,-40.1 0.2,-4.21 0,-8.43 0,-13.16 h -4.29 c -15.62,0 -31.25,0.05 -46.87,-0.06 -33.7,-0.23 -61,-27 -61.21,-60.65 q -0.41,-75.93 0,-151.87 c 0.19,-34 27.7,-60.81 61.76,-60.87 34.62,-0.06 69.25,0 103.87,-0.12 3.42,0 4.42,0.83 4.42,4.34 q -0.15,119.07 -0.09,238.12 c 0,16.5 0.43,33 -0.5,49.48 -2.27,40 -23.49,69.18 -62.66,81.48 -15.53,4.87 -31.48,6.71 -47.69,6.78 -7.62,0 -15.25,0 -22.87,0 -1.77,0 -3.15,-0.06 -3.13,-2.51 0.1,-15.5 0.09,-31 0.13,-46.49 a 6.49,6.49 0 0 1 0.52,-1.27 z m 78.62,-279.76 c -1.39,-0.09 -2.49,-0.22 -3.58,-0.22 -9.38,0 -18.75,0 -28.12,0 -14.42,0.08 -23.4,9 -23.41,23.41 q 0,29.43 0,58.86 c 0,23.12 -0.06,46.24 0.06,69.36 0.06,12.11 9.08,21.75 20.59,22 10.74,0.21 21.49,0.05 32.24,0 a 13.71,13.71 0 0 0 2.23,-0.4 z"
     fill="#202020"
     id="path3" />
  <path
     d="m 360.39,584.32254 v -49.93 h 282.25 c 0.1,1.15 0.28,2.22 0.29,3.3 0,14.37 -0.08,28.74 0.08,43.11 0,3 -0.94,3.79 -3.85,3.79 q -137.76,-0.11 -275.52,-0.08 c -0.99,0 -1.97,-0.11 -3.25,-0.19 z"
     fill="#202020"
     id="path4" />
</svg>
