<svg xmlns="http://www.w3.org/2000/svg" xmlns:xlink="http://www.w3.org/1999/xlink" viewBox="0,0,256,256" width="150px" height="150px" fill-rule="nonzero"><g fill="#ffffff" fill-rule="nonzero" stroke="none" stroke-width="1" stroke-linecap="butt" stroke-linejoin="miter" stroke-miterlimit="10" stroke-dasharray="" stroke-dashoffset="0" font-family="none" font-weight="none" font-size="none" text-anchor="none" style="mix-blend-mode: normal"><g transform="scale(5.12,5.12)"><path d="M25,12c-12.897,0 -23,5.71 -23,13c0,7.29 10.103,13 23,13c12.897,0 23,-5.71 23,-13c0,-7.29 -10.103,-13 -23,-13zM19.316,28.805v0.008c-0.009,0.026 -0.023,0.045 -0.035,0.068c-0.009,0.019 -0.017,0.039 -0.028,0.054c-0.028,0.038 -0.062,0.065 -0.103,0.065c-0.085,0 -0.141,-0.104 -0.175,-0.209v0v0c-0.034,-0.104 -0.047,-0.207 -0.047,-0.207c0,0 -0.326,-1.181 -0.634,-2.563c-0.308,-1.381 -0.737,-2.313 -1.234,-2.745c-0.084,-0.074 -0.192,-0.136 -0.307,-0.195c-0.029,-0.015 -0.058,-0.029 -0.089,-0.043c-0.118,-0.053 -0.242,-0.102 -0.374,-0.143c-0.491,-0.153 -1.031,-0.227 -1.286,-0.268c-0.411,-0.066 -4.678,-0.632 -4.678,-0.632c0,0 -2.673,-0.349 -2.81,-0.366c-0.138,-0.017 -0.516,-0.017 -0.516,-0.184c0,-0.167 0.446,-0.183 0.446,-0.183l2.502,-0.333c0,0 1.422,-0.216 4.13,-0.56c3.05,-0.333 3.313,-1.021 3.678,-1.753c0.366,-0.732 1.143,-3.184 1.143,-3.184c0,0 0.028,-0.169 0.094,-0.296v-0.013c0.006,-0.011 0.015,-0.018 0.021,-0.028c0.008,-0.013 0.016,-0.023 0.026,-0.034c0.032,-0.035 0.066,-0.061 0.11,-0.061c0.046,0 0.081,0.024 0.112,0.056c0.009,0.009 0.016,0.019 0.024,0.03c0.009,0.013 0.021,0.022 0.029,0.037v0.013c0.061,0.112 0.087,0.252 0.087,0.252c0,0 0.045,0.155 0.742,2.274c0.696,2.119 1.6,2.152 2.216,2.352c0.069,0.022 0.16,0.045 0.259,0.067c0.025,0.006 0.05,0.011 0.076,0.017c0.096,0.02 0.199,0.041 0.31,0.061c0.008,0.001 0.015,0.003 0.023,0.004c0.119,0.021 0.245,0.041 0.372,0.061c0.039,0.006 0.077,0.012 0.116,0.018c0.101,0.015 0.202,0.03 0.301,0.044c0.027,0.004 0.055,0.008 0.082,0.012c0.111,0.015 0.216,0.029 0.317,0.042c0.059,0.008 0.117,0.015 0.171,0.021c0.065,0.008 0.13,0.016 0.186,0.023c0.037,0.004 0.071,0.009 0.103,0.012c0.055,0.007 0.109,0.013 0.146,0.017c0.012,0.001 0.029,0.003 0.039,0.005c0.037,0.004 0.069,0.008 0.069,0.008c0,0 4.879,0.577 5.632,0.666c0.754,0.089 1.702,0.089 2.16,0.077c0.121,-0.003 0.254,-0.014 0.403,-0.03c0.015,-0.002 0.035,-0.004 0.05,-0.006c0.054,-0.006 0.111,-0.013 0.166,-0.02c0.104,-0.013 0.2,-0.024 0.323,-0.04v0c0.161,-0.021 0.333,-0.043 0.533,-0.067c0.219,-0.026 0.46,-0.053 0.741,-0.08c1.154,-0.111 1.417,-0.411 1.633,-0.71c0.217,-0.299 0.491,-1.22 0.491,-1.22c0,0 0.037,-0.164 0.108,-0.258v-0.003c0.001,-0.001 0.002,-0.001 0.003,-0.002c0.027,-0.034 0.058,-0.058 0.095,-0.058c0.042,0 0.073,0.028 0.099,0.062c0.002,0.003 0.006,0.002 0.008,0.005v0.008c0.053,0.079 0.076,0.191 0.076,0.191c0,0 0.252,0.655 0.492,1.254c0.041,0.101 0.106,0.183 0.178,0.256c0.018,0.018 0.036,0.036 0.055,0.052c0.154,0.132 0.344,0.218 0.515,0.27c0.022,0.007 0.043,0.013 0.064,0.019c0.065,0.018 0.125,0.031 0.177,0.041c0.034,0.006 0.07,0.013 0.095,0.017c0.013,0.002 0.029,0.004 0.039,0.006c0.025,0.003 0.052,0.006 0.052,0.006l2.331,0.366c0,0 0.091,0.005 0.194,0.019l0.013,-0.001c0.013,0.002 0.027,0.005 0.04,0.007c0.015,0.002 0.026,0.005 0.041,0.008c0.06,0.012 0.116,0.028 0.162,0.051c0.008,0.004 0.013,0.009 0.021,0.013c0.046,0.023 0.08,0.055 0.08,0.098c0,0.045 -0.032,0.079 -0.076,0.106c-0.004,0.002 -0.005,0.005 -0.009,0.007c-0.002,0.001 -0.003,0.003 -0.005,0.004h-0.006c-0.148,0.075 -0.417,0.083 -0.417,0.083c0,0 -1.074,0.222 -2.091,0.344c-0.153,0.018 -0.283,0.041 -0.405,0.066c-0.037,0.008 -0.07,0.016 -0.104,0.024c-0.081,0.019 -0.156,0.04 -0.223,0.062c-0.029,0.01 -0.059,0.019 -0.086,0.029c-0.078,0.03 -0.148,0.061 -0.207,0.095c-0.005,0.003 -0.012,0.005 -0.017,0.008c-0.064,0.037 -0.116,0.077 -0.162,0.119c-0.012,0.011 -0.022,0.022 -0.033,0.033c-0.088,0.088 -0.148,0.184 -0.191,0.284c-0.137,0.322 -0.514,1.586 -0.514,1.586c0,0 -0.08,0.3 -0.206,0.3c-0.125,0 -0.205,-0.322 -0.205,-0.322c0,0 -0.252,-1.043 -0.479,-1.597c-0.054,-0.13 -0.126,-0.228 -0.206,-0.309c-0.001,-0.001 -0.002,-0.003 -0.004,-0.004c-0.022,-0.022 -0.047,-0.037 -0.07,-0.056c-0.061,-0.05 -0.124,-0.094 -0.191,-0.127c-0.031,-0.015 -0.062,-0.029 -0.093,-0.041c-0.067,-0.026 -0.135,-0.048 -0.201,-0.063c-0.026,-0.006 -0.053,-0.014 -0.078,-0.019c-0.084,-0.016 -0.167,-0.029 -0.237,-0.04c-0.326,-0.05 -1.629,-0.216 -2.793,-0.283c-0.089,-0.005 -0.195,-0.007 -0.308,-0.007c-0.033,0 -0.068,0.001 -0.102,0.001c-0.089,0.001 -0.182,0.003 -0.28,0.006c-0.038,0.001 -0.074,0.002 -0.114,0.004c-0.13,0.005 -0.266,0.012 -0.407,0.02c-0.042,0.002 -0.086,0.006 -0.128,0.008c-0.103,0.006 -0.208,0.013 -0.314,0.021c-1.363,0.098 -2.905,0.279 -2.905,0.279c0,0 -3.479,0.383 -5.347,0.666c-0.837,0.127 -1.347,0.44 -1.685,0.795c-0.066,0.07 -0.129,0.14 -0.183,0.212c-0.033,0.044 -0.063,0.088 -0.092,0.133c-0.046,0.072 -0.088,0.144 -0.125,0.216c-0.021,0.041 -0.044,0.083 -0.062,0.124c-0.035,0.078 -0.066,0.153 -0.094,0.225c-0.012,0.031 -0.026,0.064 -0.036,0.093c-0.032,0.09 -0.062,0.177 -0.088,0.25c-0.206,0.566 -1.045,3.811 -1.045,3.811c0,0 -0.019,0.12 -0.06,0.236zM38.937,31.856c-0.012,0.007 -0.031,0.013 -0.046,0.019c-0.034,0.014 -0.073,0.026 -0.122,0.036c-0.011,0.002 -0.015,0.006 -0.027,0.008l-0.013,-0.001c-0.094,0.016 -0.202,0.03 -0.331,0.038c-0.352,0.022 -0.953,0.146 -1.964,0.269c-1.01,0.123 -1.157,0.291 -1.362,0.47c-0.156,0.137 -0.403,0.832 -0.512,1.154c-0.01,0.05 -0.041,0.175 -0.094,0.293c-0.005,0.014 -0.011,0.024 -0.018,0.038c-0.012,0.022 -0.022,0.042 -0.035,0.059c-0.027,0.038 -0.059,0.067 -0.1,0.067c-0.136,0 -0.193,-0.28 -0.193,-0.28c0,0 -0.227,-0.683 -0.329,-0.94c-0.102,-0.258 -0.238,-0.538 -0.636,-0.661c-0.397,-0.123 -1.395,-0.246 -1.862,-0.302c-0.464,-0.056 -0.612,-0.067 -1.373,-0.067c-0.233,0 -0.501,0.025 -0.774,0.053c-0.25,0.026 -0.504,0.055 -0.775,0.095c-0.098,0.014 -0.196,0.029 -0.297,0.044c-0.304,0.047 -0.611,0.096 -0.923,0.144c-1.01,0.157 -1.044,0.246 -1.271,0.481c-0.227,0.235 -0.534,1.522 -0.534,1.522c0,0 -0.067,0.271 -0.148,0.45v0.003c-0.003,0.007 -0.006,0.01 -0.01,0.017c-0.013,0.027 -0.026,0.049 -0.039,0.07c-0.006,0.009 -0.012,0.018 -0.018,0.026c-0.02,0.023 -0.039,0.039 -0.058,0.039c-0.028,0 -0.058,-0.035 -0.087,-0.081c-0.007,-0.011 -0.013,-0.02 -0.019,-0.033c-0.006,-0.011 -0.012,-0.018 -0.018,-0.03v-0.01c-0.081,-0.169 -0.148,-0.417 -0.148,-0.417c0,0 -0.307,-1.03 -0.431,-1.377c-0.125,-0.347 -0.341,-0.437 -0.658,-0.549c-0.054,-0.019 -0.137,-0.039 -0.229,-0.058c-0.025,-0.005 -0.049,-0.01 -0.076,-0.015c-0.095,-0.018 -0.198,-0.036 -0.31,-0.053c-0.427,-0.066 -0.923,-0.122 -1.1,-0.142c-0.211,-0.025 -1.208,-0.125 -1.708,-0.266h-0.003c-0.003,-0.001 -0.004,-0.002 -0.006,-0.002c-0.023,-0.006 -0.035,-0.014 -0.055,-0.02c-0.055,-0.018 -0.111,-0.036 -0.146,-0.055c-0.049,-0.026 -0.077,-0.053 -0.078,-0.082c-0.002,-0.028 0.03,-0.055 0.085,-0.08c0.01,-0.005 0.03,-0.009 0.042,-0.013c0.051,-0.02 0.107,-0.04 0.184,-0.059h0.003c0.577,-0.139 1.752,-0.228 1.752,-0.228c1.055,-0.101 1.646,-0.224 1.998,-0.436c0.351,-0.213 0.591,-1.075 0.681,-1.366c0.066,-0.21 0.16,-0.44 0.238,-0.554v-0.002c0.001,-0.002 0.002,-0.001 0.003,-0.002c0.027,-0.043 0.053,-0.07 0.075,-0.07c0.022,0 0.045,0.019 0.069,0.051c0.001,0.002 0.003,0.001 0.004,0.003v0.004c0.063,0.088 0.137,0.283 0.234,0.603c0.136,0.448 0.397,1.186 0.908,1.41c0.511,0.224 1.192,0.258 1.929,0.347c0.363,0.044 0.678,0.083 1.015,0.108c0.006,0 0.013,0.001 0.019,0.002c0.155,0.011 0.319,0.019 0.492,0.024c0.035,0.001 0.071,0.002 0.107,0.002c0.179,0.003 0.367,0.004 0.581,-0.001c0.942,-0.022 1.941,-0.235 2.474,-0.336c0.533,-0.101 0.635,-0.336 0.772,-0.549c0.136,-0.213 0.317,-0.851 0.351,-0.951c0.021,-0.062 0.05,-0.202 0.108,-0.306v-0.011c0.006,-0.011 0.016,-0.018 0.023,-0.028c0.009,-0.012 0.018,-0.024 0.028,-0.034c0.029,-0.027 0.061,-0.047 0.102,-0.047c0.048,0 0.089,0.037 0.125,0.093c0.001,0.002 0.003,0.001 0.004,0.003v0.007c0.098,0.157 0.163,0.463 0.244,0.681c0.114,0.302 0.16,0.918 0.942,1.086c0.124,0.026 0.27,0.052 0.421,0.078c0.811,0.137 1.928,0.257 2.349,0.314c0.167,0.023 0.282,0.043 0.376,0.064h0.012c0.014,0.003 0.016,0.007 0.029,0.01c0.057,0.014 0.102,0.03 0.134,0.047c0.012,0.006 0.028,0.013 0.037,0.02c0.03,0.024 0.048,0.05 0.048,0.083c0.001,0.031 -0.024,0.057 -0.062,0.079zM44.025,26.85c-0.006,0.005 -0.018,0.009 -0.026,0.013c-0.017,0.01 -0.034,0.019 -0.057,0.028c-0.013,0.005 -0.029,0.009 -0.043,0.013c-0.023,0.007 -0.046,0.015 -0.072,0.021c-0.02,0.005 -0.04,0.009 -0.06,0.013c-0.022,0.005 -0.043,0.01 -0.065,0.014c-0.005,0.001 -0.011,0.002 -0.016,0.003h-0.003c-0.158,0.03 -0.308,0.045 -0.308,0.045c0,0 -1.842,0.197 -2.212,0.417c-0.059,0.035 -0.113,0.07 -0.166,0.106c-0.015,0.01 -0.029,0.021 -0.044,0.032c-0.054,0.04 -0.105,0.083 -0.153,0.138c-0.001,0.001 -0.002,0.002 -0.003,0.003c-0.047,0.053 -0.092,0.121 -0.136,0.198c-0.011,0.02 -0.023,0.041 -0.034,0.063c-0.031,0.06 -0.062,0.136 -0.093,0.214c-0.027,0.07 -0.055,0.141 -0.082,0.227c-0.009,0.029 -0.018,0.057 -0.028,0.088c-0.043,0.142 -0.086,0.3 -0.131,0.492c-0.104,0.308 -0.127,0.45 -0.232,0.45c-0.027,0 -0.06,-0.037 -0.096,-0.099c-0.009,-0.016 -0.021,-0.046 -0.03,-0.065c-0.029,-0.057 -0.058,-0.12 -0.092,-0.206c-0.002,-0.004 -0.003,-0.006 -0.004,-0.01v-0.002c-0.079,-0.205 -0.167,-0.476 -0.264,-0.794c-0.041,-0.132 -0.081,-0.241 -0.125,-0.339c-0.184,-0.408 -0.457,-0.556 -1.287,-0.672c-1.031,-0.143 -1.47,-0.185 -2.02,-0.186c-0.167,0 -0.352,0.013 -0.539,0.027v0.006c-0.68,0.054 -1.475,0.189 -2.277,0.31c-1.036,0.157 -1.07,0.246 -1.303,0.48c-0.233,0.234 -0.546,1.518 -0.546,1.518c0,0 -0.069,0.269 -0.152,0.448v0.004c-0.004,0.008 -0.008,0.012 -0.011,0.019c-0.01,0.02 -0.02,0.038 -0.031,0.055c-0.003,0.005 -0.006,0.008 -0.009,0.012c-0.006,0.009 -0.012,0.018 -0.018,0.025c-0.02,0.024 -0.04,0.04 -0.059,0.04c-0.001,0 -0.002,-0.003 -0.003,-0.003c-0.028,-0.002 -0.057,-0.034 -0.085,-0.078c-0.003,-0.005 -0.006,-0.004 -0.009,-0.009c-0.004,-0.007 -0.008,-0.018 -0.012,-0.025c-0.006,-0.011 -0.012,-0.018 -0.018,-0.03v-0.01c-0.083,-0.169 -0.152,-0.415 -0.152,-0.415c0,0 -0.314,-1.026 -0.441,-1.372c-0.129,-0.346 -0.35,-0.435 -0.675,-0.547c-0.055,-0.019 -0.14,-0.038 -0.234,-0.057c-0.025,-0.005 -0.051,-0.01 -0.078,-0.015c-0.097,-0.018 -0.202,-0.036 -0.316,-0.053c-0.438,-0.066 -0.947,-0.121 -1.128,-0.142c-0.212,-0.025 -1.194,-0.121 -1.716,-0.258h-0.005c-0.006,-0.002 -0.008,-0.003 -0.014,-0.005c-0.063,-0.017 -0.11,-0.035 -0.156,-0.053c-0.021,-0.008 -0.049,-0.016 -0.066,-0.024c-0.054,-0.027 -0.088,-0.055 -0.089,-0.085c-0.002,-0.029 0.033,-0.056 0.093,-0.082c0.004,-0.002 0.011,-0.004 0.016,-0.005c0.391,-0.181 2.022,-0.302 2.022,-0.302c1.076,-0.101 1.679,-0.224 2.037,-0.437c0.36,-0.213 0.602,-1.075 0.695,-1.366c0.092,-0.29 0.242,-0.626 0.324,-0.626c0.082,0 0.174,0.212 0.313,0.66c0.139,0.448 0.405,1.187 0.927,1.41c0.521,0.224 1.216,0.257 1.968,0.347c0,0 0.898,0.165 1.847,0.142c0.95,-0.022 1.54,-0.176 1.911,-0.231c0.37,-0.055 1.065,-0.165 1.284,-0.648c0.171,-0.375 0.341,-0.878 0.485,-1.092v-0.003c0.003,-0.004 0.005,-0.003 0.008,-0.007c0.039,-0.055 0.076,-0.093 0.11,-0.095c0.019,-0.001 0.041,0.01 0.062,0.029c0.007,0.006 0.013,0.016 0.02,0.023c0.013,0.014 0.026,0.026 0.039,0.045v0.003c0.143,0.207 0.295,0.669 0.295,0.669c0,0 0.185,0.758 0.811,0.89c0.625,0.132 1.609,0.352 2.119,0.418c0.14,0.018 0.249,0.035 0.341,0.052h0.005c0.069,0.013 0.122,0.027 0.167,0.041c0.011,0.004 0.019,0.008 0.029,0.012c0.034,0.013 0.061,0.028 0.08,0.044c0.007,0.006 0.014,0.011 0.019,0.018c0.018,0.022 0.03,0.046 0.03,0.075c-0.001,0.017 -0.013,0.033 -0.033,0.048z"></path></g></g></svg>