<svg xmlns="http://www.w3.org/2000/svg" xmlns:xlink="http://www.w3.org/1999/xlink" viewBox="0,0,256,256" width="150px" height="150px"><g fill="#ffffff" fill-rule="nonzero" stroke="none" stroke-width="1" stroke-linecap="butt" stroke-linejoin="miter" stroke-miterlimit="10" stroke-dasharray="" stroke-dashoffset="0" font-family="none" font-weight="none" font-size="none" text-anchor="none" style="mix-blend-mode: normal"><g transform="scale(5.12,5.12)"><path d="M36,2c-0.40437,0.00016 -0.76885,0.24381 -0.92359,0.6174c-0.15474,0.37359 -0.06927,0.8036 0.21656,1.08963l1.46289,1.46484l-2.54102,2.54883c-9.10722,-5.10127 -20.64987,-2.8022 -27.01172,5.57422c-6.5279,8.59505 -5.47831,20.75706 2.41992,28.11523c7.89823,7.35818 20.10483,7.54703 28.2168,0.42773c7.89146,-6.92577 9.37393,-18.5723 3.67773,-27.29102l2.31055,-2.30273l1.46484,1.46289c0.28603,0.28583 0.71604,0.37129 1.08963,0.21656c0.37359,-0.15474 0.61724,-0.51922 0.6174,-0.92359v-10c-0.00006,-0.55226 -0.44774,-0.99994 -1,-1zM38.41406,4h6.58594v6.58594l-0.46289,-0.46289c-0.38999,-0.39091 -1.02299,-0.39178 -1.41406,-0.00195l-3.55859,3.55078c-0.34627,0.34558 -0.39171,0.89094 -0.10742,1.28906c5.68578,7.96483 4.41739,18.9199 -2.93555,25.37305c-7.35273,6.45297 -18.37511,6.28375 -25.53516,-0.38672c-7.16005,-6.67047 -8.10637,-17.6508 -2.18945,-25.44141c5.91709,-7.79082 16.75468,-9.83103 25.10156,-4.72266c0.39464,0.24176 0.90361,0.18117 1.23047,-0.14648l3.75,-3.75977c0.38983,-0.39107 0.38896,-1.02407 -0.00195,-1.41406zM24,11c-6.34507,0 -11.76833,3.96388 -13.95703,9.54102c-0.01926,0.03667 -0.03622,0.07451 -0.05078,0.11328c-0.05735,0.15566 -0.13706,0.36035 -0.20898,0.58789c-0.00595,0.01604 -0.00982,0.03274 -0.01562,0.04883c-0.05472,0.165 -0.10717,0.33058 -0.15625,0.49805c-0.00716,0.02624 -0.01655,0.0518 -0.02344,0.07813c-0.00244,0.0077 -0.00348,0.01193 -0.00586,0.01953c-0.08241,0.26273 -0.1364,0.49232 -0.1875,0.67969c-0.00511,0.01874 -0.00967,0.03763 -0.01367,0.05664c-0.01885,0.08956 -0.03931,0.1924 -0.05859,0.28711c-0.0105,0.04995 -0.0193,0.10026 -0.0293,0.15039c-0.0117,0.0591 -0.02325,0.10938 -0.03516,0.17188c-0.04573,0.24009 -0.07742,0.46578 -0.10742,0.67578c-0.01431,0.09922 -0.02094,0.19938 -0.0332,0.29883c-0.01844,0.1539 -0.0351,0.30761 -0.04883,0.46289c-0.04024,0.44114 -0.06817,0.88354 -0.06836,1.32617c0,0.00132 0,0.00259 0,0.00391v0.00195c-0.00001,0.44523 0.02781,0.88831 0.06836,1.33203c0.01354,0.15269 0.03073,0.30373 0.04883,0.45508c0.01247,0.10137 0.0186,0.20354 0.0332,0.30469c0.0293,0.20519 0.06071,0.43832 0.10938,0.68164c0.01051,0.05256 0.02075,0.10523 0.03125,0.1582c0.01065,0.05352 0.02198,0.10684 0.0332,0.16016c0.01893,0.09481 0.03713,0.19052 0.05664,0.2832c0.00401,0.01901 0.00857,0.0379 0.01367,0.05664c0.0511,0.18737 0.10509,0.41696 0.1875,0.67969c0.00238,0.0076 0.00342,0.01187 0.00586,0.01953c0.00688,0.02633 0.01628,0.05188 0.02344,0.07813c0.04908,0.16747 0.10153,0.33305 0.15625,0.49805c0.00581,0.01609 0.00967,0.03279 0.01563,0.04883c0.07192,0.22754 0.15164,0.43223 0.20898,0.58789c0.01408,0.0374 0.03038,0.07392 0.04883,0.10938c2.18766,5.57926 7.61239,9.54492 13.95898,9.54492c6.34748,0 11.77388,-3.96638 13.96094,-9.54687c0.01771,-0.03486 0.03336,-0.07073 0.04687,-0.10742c0.05735,-0.15566 0.13706,-0.36035 0.20898,-0.58789c0.00595,-0.01604 0.00982,-0.03274 0.01563,-0.04883c0.05472,-0.165 0.10717,-0.33058 0.15625,-0.49805c0.00716,-0.02624 0.01655,-0.0518 0.02344,-0.07813l0.00586,-0.01953c0.08241,-0.26273 0.1364,-0.49232 0.1875,-0.67969c0.00511,-0.01874 0.00967,-0.03763 0.01367,-0.05664c0.01885,-0.08956 0.03931,-0.1924 0.05859,-0.28711c0.0105,-0.04995 0.0193,-0.10026 0.0293,-0.15039c0.0117,-0.0591 0.02325,-0.10938 0.03516,-0.17187c0.04573,-0.24009 0.07742,-0.46578 0.10742,-0.67578c0.01358,-0.09529 0.0195,-0.19159 0.03125,-0.28711c0.01989,-0.16486 0.03826,-0.32965 0.05273,-0.49609c0.03892,-0.43475 0.06565,-0.87003 0.06641,-1.30664v-0.00195c0,-0.00065 0,-0.0013 0,-0.00195c-0.00075,-0.43661 -0.02747,-0.87189 -0.06641,-1.30664c-0.01448,-0.16645 -0.03285,-0.33123 -0.05273,-0.49609c-0.01176,-0.09552 -0.01766,-0.19182 -0.03125,-0.28711c-0.02937,-0.2056 -0.06058,-0.43959 -0.10937,-0.68359c-0.01051,-0.05256 -0.02075,-0.10523 -0.03125,-0.1582c-0.01065,-0.05352 -0.02198,-0.10684 -0.0332,-0.16016c-0.01893,-0.09481 -0.03713,-0.19052 -0.05664,-0.2832c-0.00401,-0.01901 -0.00857,-0.0379 -0.01367,-0.05664c-0.0511,-0.18737 -0.10509,-0.41696 -0.1875,-0.67969c-0.00819,-0.03173 -0.02067,-0.06215 -0.0293,-0.09375c-0.04939,-0.16869 -0.10114,-0.33577 -0.15625,-0.50195c-0.00582,-0.01608 -0.00967,-0.03279 -0.01562,-0.04883c-0.07192,-0.22754 -0.15163,-0.43223 -0.20898,-0.58789c-0.01408,-0.0374 -0.03038,-0.07392 -0.04883,-0.10937c-2.18766,-5.57926 -7.61239,-9.54492 -13.95898,-9.54492zM24,13c5.02387,0 9.366,2.83947 11.53125,7h-23.0625c2.16525,-4.16053 6.50738,-7 11.53125,-7zM11.63867,22h24.72266c0.04604,0.12969 0.08858,0.26124 0.12305,0.39453c0.08353,0.2907 0.16311,0.58408 0.22656,0.88281c0.01391,0.06847 0.02691,0.13661 0.04102,0.20703c0.05752,0.29433 0.09936,0.59338 0.13672,0.89453c0.02174,0.16976 0.04156,0.33935 0.05664,0.50977c0.03079,0.36491 0.05452,0.73249 0.05469,1.10547c0.00001,0.00195 0,0.00586 0,0.00781c-0.00006,0.37497 -0.02368,0.74451 -0.05469,1.11133c-0.01499,0.16913 -0.03509,0.33739 -0.05664,0.50586c-0.03715,0.29978 -0.07764,0.5976 -0.13477,0.89063c-0.01426,0.07255 -0.02845,0.14416 -0.04297,0.21484c-0.06336,0.2981 -0.14321,0.59077 -0.22656,0.88086c-0.03446,0.1333 -0.07701,0.26484 -0.12305,0.39453h-24.72266c-0.04831,-0.13609 -0.09367,-0.27399 -0.12891,-0.41406c-0.08123,-0.28438 -0.15867,-0.57123 -0.2207,-0.86328c-0.01391,-0.06847 -0.02691,-0.13661 -0.04101,-0.20703c-0.06003,-0.30718 -0.10452,-0.61901 -0.14258,-0.93359c-0.01853,-0.14687 -0.03548,-0.29414 -0.04883,-0.44141c-0.0326,-0.37628 -0.05664,-0.75574 -0.05664,-1.14062c0,-0.38488 0.02404,-0.76434 0.05664,-1.14062c0.01335,-0.14726 0.0303,-0.29454 0.04883,-0.44141c0.03781,-0.31256 0.08112,-0.62248 0.14063,-0.92773c0.01426,-0.07255 0.02845,-0.14416 0.04297,-0.21484c0.06194,-0.29142 0.13965,-0.57755 0.2207,-0.86133c0.03523,-0.14007 0.0806,-0.27797 0.12891,-0.41406zM20.32617,24c-0.5248,-0.01764 -1.03423,0.17876 -1.41137,0.54411c-0.37714,0.36536 -0.58961,0.8683 -0.58863,1.39339c-0.07085,0.56216 0.12255,1.12544 0.52377,1.52552c0.40122,0.40008 0.96506,0.59186 1.52701,0.5194c0.52081,0.00995 1.02194,-0.19882 1.38164,-0.57559c0.3597,-0.37677 0.54502,-0.88705 0.51094,-1.40683c0.04378,-0.53266 -0.14481,-1.05824 -0.51726,-1.44155c-0.37245,-0.38331 -0.8924,-0.58692 -1.4261,-0.55845zM22.51172,24v0.6543h0.65039v2.69141h-0.65039v0.6543h4v-1.90039l-0.45117,0.00195c0,0.673 -0.40353,1.22461 -0.89453,1.22461h-0.67969v-2.68164h0.6875v-0.64453zM33.05469,24c-0.52487,-0.01792 -1.03447,0.17838 -1.41167,0.5438c-0.37721,0.36542 -0.58958,0.86852 -0.58833,1.3937c-0.07085,0.56216 0.12255,1.12544 0.52377,1.52552c0.40122,0.40008 0.96506,0.59186 1.52701,0.5194c0.52105,0.0102 1.02253,-0.19842 1.38259,-0.57519c0.36006,-0.37677 0.54575,-0.88718 0.51194,-1.40723c0.04384,-0.53302 -0.14501,-1.05894 -0.5179,-1.44232c-0.37289,-0.38338 -0.89338,-0.58673 -1.42741,-0.55768zM13,24.00391v0.64258h0.64648l1.36914,3.33984h1.57227l1.30664,-3.33984h0.61133l0.00586,-0.64258h-1.99805l-0.00195,0.64648h0.55664l-0.90625,2.375l-0.88477,-2.375h0.6543v-0.64648zM25.72656,24.00391v0.64258h0.64453l1.36914,3.33984h1.57422l1.30664,-3.33984h0.60938l0.00781,-0.64258h-2l-0.00195,0.64648h0.55859l-0.90625,2.375l-0.88477,-2.375h0.6543v-0.64648zM20.29688,24.5332c0.395,0 0.71484,0.64159 0.71484,1.43359c0,0.792 -0.31894,1.43945 -0.71094,1.43945l-0.00391,-0.00586c-0.395,0 -0.71484,-0.64259 -0.71484,-1.43359c0,-0.791 0.31984,-1.43359 0.71484,-1.43359zM33.02539,24.5332c0.394,0 0.7168,0.64159 0.7168,1.43359c0,0.792 -0.3218,1.43945 -0.7168,1.43945v-0.00586c-0.394,0 -0.71484,-0.64259 -0.71484,-1.43359c0,-0.791 0.32084,-1.43359 0.71484,-1.43359zM12.46875,32h23.0625c-2.16525,4.16053 -6.50738,7 -11.53125,7c-5.02387,0 -9.366,-2.83947 -11.53125,-7z"></path></g></g></svg>